<?xml version="1.0" encoding="UTF-8" standalone="no"?>
<!-- Created with Inkscape (http://www.inkscape.org/) -->

<svg
   xmlns:dc="http://purl.org/dc/elements/1.1/"
   xmlns:cc="http://creativecommons.org/ns#"
   xmlns:rdf="http://www.w3.org/1999/02/22-rdf-syntax-ns#"
   xmlns:svg="http://www.w3.org/2000/svg"
   xmlns="http://www.w3.org/2000/svg"
   xmlns:sodipodi="http://sodipodi.sourceforge.net/DTD/sodipodi-0.dtd"
   xmlns:inkscape="http://www.inkscape.org/namespaces/inkscape"
   width="512"
   height="512"
   viewBox="0 0 135.46666 135.46667"
   version="1.1"
   id="svg8"
   inkscape:version="0.92.4 5da689c313, 2019-01-14"
   sodipodi:docname="icon.svg">
  <defs
     id="defs2" />
  <sodipodi:namedview
     id="base"
     pagecolor="#ffffff"
     bordercolor="#666666"
     borderopacity="1.0"
     inkscape:pageopacity="0.0"
     inkscape:pageshadow="2"
     inkscape:zoom="0.84604322"
     inkscape:cx="380.59262"
     inkscape:cy="248.0743"
     inkscape:document-units="mm"
     inkscape:current-layer="layer1"
     showgrid="false"
     units="px"
     inkscape:window-width="1896"
     inkscape:window-height="1029"
     inkscape:window-x="1932"
     inkscape:window-y="39"
     inkscape:window-maximized="0" />
  <metadata
     id="metadata5">
    <rdf:RDF>
      <cc:Work
         rdf:about="">
        <dc:format>image/svg+xml</dc:format>
        <dc:type
           rdf:resource="http://purl.org/dc/dcmitype/StillImage" />
        <dc:title></dc:title>
      </cc:Work>
    </rdf:RDF>
  </metadata>
  <g
     inkscape:label="Layer 1"
     inkscape:groupmode="layer"
     id="layer1"
     transform="translate(0,-161.53332)">
    <g
       id="g101"
       transform="translate(0.06953683,14.231392)">
      <path
         style="fill:#8fdcbc;stroke-width:0.26458332"
         d="m 20.263517,280.25473 c -3.745656,-1.17061 -6.964511,-4.92617 -7.404216,-8.63879 L 12.711007,270.36383 11.1564,270.1834 c -1.2240939,-0.14207 -1.6668199,-0.32309 -2.0824179,-0.85144 -0.508735,-0.64675 -0.527812,-1.08135 -0.527812,-12.02443 V 245.9541 l 0.649432,-0.64943 c 0.532848,-0.53285 0.9119419,-0.64943 2.1117589,-0.64943 h 1.462327 l 0.07105,-26.78906 0.07105,-26.78906 0.713287,-1.52205 c 0.993914,-2.12087 3.089205,-4.25079 5.209222,-5.2953 l 1.736514,-0.85556 5.612634,-0.0848 5.612634,-0.0848 0.174233,-1.50271 c 1.664599,-14.3565 11.281338,-26.2357 24.779453,-30.60914 3.719809,-1.20523 7.012257,-1.71516 11.082577,-1.71646 18.40834,-0.006 33.671148,13.76682 35.822998,32.3256 l 0.17423,1.50271 5.61264,0.0848 5.61263,0.0848 1.73651,0.85556 c 2.12002,1.04451 4.21531,3.17443 5.20922,5.2953 l 0.71329,1.52205 0.0762,12.26143 c 0.0712,11.45881 0.10586,12.24836 0.52917,12.06186 1.09445,-0.48217 2.30954,-0.42288 3.03545,0.14812 l 0.7248,0.57012 v 11.5022 11.50219 l -0.62416,0.62416 c -0.34328,0.34328 -1.29578,0.83586 -2.11666,1.09462 l -1.49252,0.47047 v 6.83085 6.83085 l 0.72761,0.002 c 1.24552,0.003 2.67861,0.52288 3.10105,1.12601 0.34798,0.49681 0.40468,2.17542 0.40468,11.98214 v 11.40438 l -0.61237,0.57529 c -0.73411,0.68966 -1.42229,0.70915 -6.74657,0.19105 -3.26447,-0.31767 -3.91136,-0.31658 -4.68786,0.008 -1.29217,0.53991 -93.040848,0.53268 -94.76918,-0.007 z M 122.84616,267.81132 v -8.32933 l -0.59531,-0.12868 c -0.32742,-0.0708 -2.14312,-0.25563 -4.0349,-0.4108 -1.89177,-0.15516 -4.00513,-0.35299 -4.69635,-0.43962 l -1.25677,-0.15749 v 4.18422 c 0,3.93189 -0.0347,4.22115 -0.57529,4.79659 -0.75889,0.8078 -2.20652,0.82542 -3.04568,0.0371 -0.5927,-0.55682 -0.61236,-0.7172 -0.61236,-4.99562 v -4.42033 l -2.57969,-0.18462 c -1.41883,-0.10153 -2.84758,-0.24766 -3.175,-0.32473 -0.58638,-0.13801 -0.59531,-0.10122 -0.59531,2.4512 0,2.29642 -0.0655,2.66101 -0.57529,3.20369 -0.75889,0.80779 -2.206528,0.82542 -3.045678,0.0371 -0.56261,-0.52854 -0.61237,-0.79495 -0.61237,-3.27861 0,-3.1518 0.3297,-2.87475 -3.77031,-3.16817 l -2.57969,-0.18461 v 4.04931 c 0,3.79337 -0.0364,4.08801 -0.57528,4.66167 -0.75889,0.8078 -2.20653,0.82542 -3.04568,0.0371 -0.59126,-0.55546 -0.61237,-0.72314 -0.61237,-4.86431 v -4.28901 l -1.38906,-0.15406 c -0.76399,-0.0847 -2.19274,-0.23138 -3.175,-0.32589 l -1.78594,-0.17184 v 2.46117 c 0,2.16279 -0.0697,2.5354 -0.57528,3.07353 -0.7589,0.8078 -2.20653,0.82542 -3.04569,0.0371 -0.56253,-0.52847 -0.61236,-0.79508 -0.61236,-3.276 v -2.70071 l -2.31511,-0.17872 c -1.2733,-0.0982 -2.70205,-0.24464 -3.175,-0.32532 l -0.85989,-0.1467 v 4.04729 c 0,3.7913 -0.0364,4.08602 -0.57529,4.65966 -0.75889,0.80779 -2.20652,0.82542 -3.04568,0.0371 -0.59007,-0.55434 -0.61236,-0.72775 -0.61236,-4.7625 0,-2.30296 -0.0298,-4.19823 -0.0661,-4.21171 -0.0364,-0.0135 -1.46513,-0.16477 -3.175,-0.33621 l -3.108854,-0.31171 v 2.36968 c 0,2.06886 -0.07303,2.44741 -0.575286,2.98204 -0.758892,0.8078 -2.206527,0.82543 -3.045683,0.0371 -0.558575,-0.52475 -0.612364,-0.80101 -0.612364,-3.14496 v -2.56967 l -1.124479,-0.15098 c -0.618464,-0.083 -2.047214,-0.2296 -3.175,-0.32571 l -2.050521,-0.17473 v 3.91664 c 0,3.65715 -0.03811,3.9572 -0.575286,4.529 -0.758891,0.8078 -2.206527,0.82542 -3.045682,0.0371 -0.589693,-0.55399 -0.612365,-0.72917 -0.612365,-4.73142 v -4.15619 l -2.050521,-0.17474 c -1.127786,-0.0961 -2.556536,-0.24267 -3.175,-0.32571 l -1.124479,-0.15098 v 2.3281 c 0,2.02616 -0.07461,2.40751 -0.575286,2.94046 -0.780389,0.83068 -2.297075,0.83632 -3.072029,0.0114 -0.480079,-0.51102 -0.576062,-0.97623 -0.641435,-3.10886 l -0.07688,-2.50792 -1.984375,-0.18467 c -1.091406,-0.10157 -2.49039,-0.23578 -3.108854,-0.29823 l -1.124479,-0.11356 v 3.85306 c 0,3.59187 -0.039,3.89455 -0.575286,4.46541 -0.75889,0.8078 -2.206526,0.82543 -3.045682,0.0371 -0.588282,-0.55266 -0.612365,-0.73429 -0.612365,-4.61822 v -4.04293 l -0.859896,-0.13143 c -0.472942,-0.0723 -2.407708,-0.26076 -4.299479,-0.41884 -1.89177,-0.15807 -3.886067,-0.35291 -4.43177,-0.43298 l -0.992188,-0.14558 v 8.35259 8.3526 l 0.595313,0.12817 c 0.327422,0.0705 2.083593,0.2546 3.902604,0.40913 1.81901,0.15452 8.426979,0.75555 14.684374,1.33562 24.871356,2.3056 38.237833,3.54376 48.683333,4.5096 4.94771,0.45749 16.25865,1.51809 25.135418,2.35689 8.87677,0.8388 16.34794,1.53956 16.6026,1.55725 0.43185,0.03 0.46302,-0.52861 0.46302,-8.29717 z M 108.0295,241.92259 c 7.63984,-2.69114 14.09898,-4.97589 14.35364,-5.07722 0.427,-0.16991 0.46302,-0.82005 0.46302,-8.35802 0,-4.49557 -0.0893,-8.16679 -0.19843,-8.15825 -0.10915,0.008 -2.46063,0.81221 -5.22553,1.78594 l -5.02708,1.77041 -0.0728,4.48794 c -0.0677,4.1738 -0.1126,4.53032 -0.64143,5.09323 -0.75222,0.8007 -2.2034,0.81503 -3.03903,0.03 -0.58283,-0.54754 -0.61236,-0.75172 -0.61236,-4.23333 0,-2.75747 -0.0814,-3.65462 -0.33073,-3.64413 -0.1819,0.008 -1.58089,0.46475 -3.10886,1.01577 l -2.77812,1.00184 -0.0764,2.61617 c -0.0656,2.24476 -0.15666,2.70156 -0.64143,3.21757 -0.74856,0.79681 -2.201708,0.8093 -3.035378,0.0261 -0.5241,-0.49237 -0.61237,-0.8356 -0.61237,-2.38125 0,-1.27672 -0.0969,-1.80139 -0.33073,-1.79035 -0.1819,0.009 -1.58088,0.46974 -3.10885,1.02478 l -2.77812,1.00915 -0.0736,3.92699 c -0.0674,3.59657 -0.12133,3.97785 -0.64143,4.53147 -0.75147,0.79991 -2.20306,0.81386 -3.03828,0.0292 -0.57315,-0.53845 -0.61237,-0.77569 -0.61237,-3.70417 0,-1.72089 -0.0987,-3.12889 -0.21931,-3.12889 -0.12062,0 -1.5196,0.46308 -3.10885,1.02906 l -2.88955,1.02905 -0.0784,2.07578 c -0.0937,2.48155 -0.61034,3.27445 -2.13349,3.27445 -1.40881,0 -2.15374,-0.83958 -2.15374,-2.42737 0,-0.70224 -0.0893,-1.27204 -0.19844,-1.26623 -0.10914,0.006 -1.50812,0.46647 -3.10885,1.02367 l -2.91042,1.0131 -0.0745,3.39993 c -0.0669,3.05362 -0.13223,3.46139 -0.64144,4.00341 -0.75053,0.7989 -2.20261,0.81238 -3.03734,0.0282 -0.55952,-0.52564 -0.61236,-0.79965 -0.61236,-3.175 0,-1.42984 -0.0525,-2.59971 -0.11674,-2.59971 -0.24404,0 -15.380402,5.35374 -15.758264,5.57371 -0.322212,0.18757 -0.297624,0.23254 0.130694,0.23907 0.561115,0.009 10.305668,0.87449 14.95056,1.32855 1.52796,0.14937 4.68312,0.45055 7.01145,0.6693 2.32834,0.21875 4.82865,0.45505 5.55625,0.52509 0.72761,0.0701 2.93026,0.25999 4.89479,0.42208 1.96454,0.16209 3.60761,0.32761 3.65127,0.36781 0.0901,0.083 2.56594,-0.77459 22.013318,-7.62493 z M 68.926382,197.8131 c 2.97957,-0.82752 3.97188,-4.65256 1.77652,-6.84792 -2.92886,-2.92885 -7.93744,-0.0573 -6.86256,3.93451 0.337,1.25152 1.57281,2.56166 2.73298,2.89735 1.13569,0.32861 1.2255,0.32922 2.35306,0.0161 z"
         id="path107"
         inkscape:connector-curvature="0" />
      <path
         style="fill:#47bf94;stroke-width:0.26458332"
         d="m 20.914362,280.35316 c -1.522441,-0.36163 -3.559849,-1.48471 -4.848756,-2.67278 -1.386865,-1.27837 -2.893863,-4.1476 -3.147664,-5.99295 -0.196169,-1.42632 -0.459772,-1.62136 -2.200986,-1.62858 -0.569528,-0.002 -1.0971529,-0.22884 -1.5213539,-0.65304 l -0.649432,-0.64943 V 257.35524 245.9541 l 0.680608,-0.6806 c 0.603055,-0.60306 0.8435469,-0.6671 2.1106069,-0.56202 l 1.43,0.11858 0.0722,-26.75808 0.07221,-26.75809 0.988145,-1.99919 c 1.190143,-2.40787 2.72239,-3.90793 5.182042,-5.07321 l 1.767313,-0.83728 5.423448,-0.0906 c 3.729933,-0.0623 5.484306,-0.18623 5.618344,-0.39688 0.107193,-0.16846 0.19672,-0.7043 0.198948,-1.19077 0.0076,-1.6604 1.097693,-6.25476 2.144257,-9.03732 4.378809,-11.64219 14.525177,-20.17823 26.963959,-22.68452 3.096821,-0.62398 10.132341,-0.62398 13.229171,0 12.43878,2.50629 22.58514,11.04233 26.963948,22.68452 1.04657,2.78256 2.13666,7.37692 2.14426,9.03732 0.002,0.48647 0.0918,1.02231 0.19895,1.19077 0.13407,0.21071 1.89197,0.33456 5.63307,0.39688 l 5.43817,0.0906 1.99838,0.98814 c 2.407,1.19021 3.90743,2.72307 5.07239,5.18204 l 0.83728,1.76732 0.0786,12.12819 c 0.0733,11.29929 0.10944,12.11577 0.52917,11.94633 0.24779,-0.10003 0.88796,-0.24414 1.4226,-0.32024 0.7984,-0.11364 1.09385,-0.0166 1.65364,0.54321 l 0.68158,0.68158 v 11.33023 c 0,9.64134 -0.0591,11.41467 -0.39674,11.89666 -0.22406,0.31989 -1.14532,0.81553 -2.11667,1.13878 l -1.71993,0.57235 v 6.82674 6.82673 l 0.59532,0.15954 c 0.32742,0.0877 0.98767,0.16117 1.46723,0.16315 0.56953,0.002 1.09715,0.22885 1.52135,0.65305 l 0.64944,0.64943 v 11.40113 11.40114 l -0.64944,0.64943 c -0.76784,0.76784 -0.72828,0.76634 -6.09797,0.23172 -3.51499,-0.34995 -4.3058,-0.36068 -4.8756,-0.0661 -0.5571,0.28797 -9.07904,0.35905 -47.114488,0.39297 -26.442093,0.0236 -46.862024,-0.0602 -47.42764,-0.19453 z M 122.84616,267.71374 v -8.42693 l -3.50573,-0.31443 c -1.92815,-0.17294 -4.3094,-0.38652 -5.29166,-0.47462 l -1.78594,-0.16017 v 4.15106 c 0,4.05452 -0.0151,4.16616 -0.64943,4.80049 -0.40937,0.40937 -0.95173,0.64943 -1.46724,0.64943 -0.5155,0 -1.05786,-0.24006 -1.46723,-0.64943 -0.63682,-0.63681 -0.64943,-0.73389 -0.64943,-4.99626 v -4.34683 l -1.78594,-0.17184 c -0.98227,-0.0945 -2.41102,-0.24116 -3.175,-0.32589 l -1.38906,-0.15405 v 2.55605 c 0,2.36106 -0.0496,2.6056 -0.64944,3.20549 -0.40937,0.40937 -0.95172,0.64943 -1.467228,0.64943 -0.51551,0 -1.05786,-0.24006 -1.46723,-0.64943 -0.60648,-0.60647 -0.64944,-0.83192 -0.64944,-3.40812 V 256.889 l -2.57968,-0.18461 c -1.41883,-0.10154 -2.84758,-0.24767 -3.175,-0.32473 l -0.59532,-0.14012 v 4.14175 c 0,4.04464 -0.0152,4.15698 -0.64943,4.79118 -0.40937,0.40938 -0.95173,0.64944 -1.46723,0.64944 -0.51551,0 -1.05786,-0.24006 -1.46724,-0.64944 -0.63518,-0.63518 -0.64943,-0.74192 -0.64943,-4.8661 0,-4.90302 0.41988,-4.38166 -3.77031,-4.68153 l -2.57969,-0.18461 v 2.42474 c 0,2.22164 -0.0544,2.47914 -0.64943,3.07417 -0.40937,0.40937 -0.95173,0.64943 -1.46724,0.64943 -0.5155,0 -1.05786,-0.24006 -1.46723,-0.64943 -0.60232,-0.60232 -0.64943,-0.84003 -0.64943,-3.2768 v -2.62738 l -1.38906,-0.15405 c -0.76399,-0.0847 -2.19274,-0.23138 -3.175,-0.32589 l -1.78594,-0.17184 v 4.0116 c 0,3.90645 -0.017,4.02862 -0.64943,4.66103 -0.40938,0.40937 -0.95173,0.64943 -1.46724,0.64943 -0.5155,0 -1.05786,-0.24006 -1.46723,-0.64943 -0.63516,-0.63516 -0.64943,-0.74209 -0.64943,-4.8635 v -4.21407 l -2.31511,-0.17862 c -1.27331,-0.0982 -2.702056,-0.24464 -3.174998,-0.32532 l -0.859896,-0.1467 v 2.42272 c 0,2.2195 -0.05448,2.4772 -0.649433,3.07215 -0.409371,0.40938 -0.951728,0.64944 -1.467234,0.64944 -0.515506,0 -1.057862,-0.24006 -1.467233,-0.64944 -0.598808,-0.5988 -0.649433,-0.84631 -0.649433,-3.175 0,-1.38906 -0.02977,-2.53779 -0.06615,-2.55273 -0.03638,-0.0149 -1.46513,-0.16864 -3.175,-0.34156 l -3.108854,-0.3144 v 3.92547 c 0,3.81499 -0.01828,3.94373 -0.649433,4.57489 -0.409371,0.40937 -0.951727,0.64943 -1.467234,0.64943 -0.515506,0 -1.057862,-0.24006 -1.467233,-0.64943 -0.63341,-0.63341 -0.649433,-0.75017 -0.649433,-4.73246 v -4.08302 l -1.124479,-0.15098 c -0.618464,-0.083 -2.047214,-0.2296 -3.175,-0.32571 l -2.050521,-0.17473 v 2.29207 c 0,2.08078 -0.05987,2.35193 -0.649433,2.9415 -0.409371,0.40937 -0.951727,0.64943 -1.467233,0.64943 -0.515507,0 -1.057863,-0.24006 -1.467234,-0.64943 -0.597678,-0.59768 -0.649433,-0.84823 -0.649433,-3.14392 v -2.49448 l -2.050521,-0.17473 c -1.127786,-0.0961 -2.556536,-0.24268 -3.175,-0.32571 l -1.124479,-0.15098 v 3.87853 c 0,3.76516 -0.01897,3.8975 -0.649433,4.52795 -0.409372,0.40938 -0.951726,0.64944 -1.467233,0.64944 -0.515507,0 -1.057862,-0.24006 -1.467235,-0.64944 -0.633152,-0.63315 -0.649432,-0.75131 -0.649432,-4.71386 v -4.06444 l -3.902604,-0.32515 c -2.146432,-0.17884 -4.527682,-0.39571 -5.291666,-0.48194 l -1.389063,-0.15678 v 8.5031 c 0,8.23917 0.01593,8.50309 0.513316,8.50309 0.282323,0 19.838338,1.78715 43.45781,3.97144 54.027935,4.99642 56.464895,5.22327 60.803875,5.66022 1.96453,0.19784 3.95882,0.37384 4.43177,0.39111 l 0.85989,0.0314 z m -12.7,-17.89912 c 0,-2.11006 -0.0858,-3.83646 -0.19066,-3.83646 -0.52343,0 -17.007248,5.94191 -17.007248,6.13059 0,0.12068 0.56554,0.2285 1.25677,0.23962 0.69122,0.0111 3.93568,0.2932 7.209888,0.62685 3.27422,0.33366 6.57821,0.62222 7.34219,0.64125 l 1.38906,0.0346 z m -18.256248,-2.13757 c 5.16599,-1.80955 14.214738,-4.99094 20.108338,-7.06974 l 10.71562,-3.77965 0.0699,-8.25704 c 0.0385,-4.54138 -0.0211,-8.25955 -0.13229,-8.26262 -0.11122,-0.003 -2.49417,0.79726 -5.29544,1.7785 l -5.09323,1.78408 v 4.45123 c 0,4.37322 -0.0114,4.46262 -0.64943,5.10067 -0.40937,0.40937 -0.95173,0.64943 -1.46724,0.64943 -0.5155,0 -1.05786,-0.24006 -1.46723,-0.64943 -0.6277,-0.6277 -0.64943,-0.77345 -0.64943,-4.35533 v -3.70591 l -3.175,1.11356 -3.175,1.11355 v 2.59235 c 0,2.39959 -0.0483,2.64063 -0.64944,3.24178 -0.85919,0.85919 -2.075268,0.85919 -2.934458,0 -0.56564,-0.56564 -0.64944,-0.88806 -0.64944,-2.49877 v -1.84933 l -3.17337,1.1097 -3.17338,1.1097 -0.002,3.91463 c -0.002,3.80247 -0.0202,3.93324 -0.65105,4.56406 -0.40941,0.40938 -0.95177,0.64944 -1.46727,0.64944 -0.51551,0 -1.05786,-0.24006 -1.46724,-0.64944 -0.61711,-0.6171 -0.64943,-0.8069 -0.64943,-3.81338 v -3.16396 l -3.17271,1.10141 -3.1727,1.10141 -0.002,2.06255 c -0.002,1.83544 -0.0738,2.13405 -0.65173,2.71197 -0.40928,0.40938 -0.95164,0.64944 -1.46715,0.64944 -1.29206,0 -2.11666,-1.01 -2.11666,-2.59254 v -1.29368 l -3.10886,1.08321 -3.10885,1.08322 -0.13229,3.52999 c -0.12409,3.31121 -0.171,3.56128 -0.75692,4.0349 -0.87004,0.70328 -2.03893,0.64352 -2.82698,-0.14454 -0.59881,-0.5988 -0.64943,-0.8463 -0.64943,-3.175 0,-1.38906 -0.1071,-2.52556 -0.23799,-2.52556 -0.13089,0 -3.970657,1.321 -8.532811,2.93555 -4.562155,1.61456 -9.187796,3.25058 -10.279203,3.6356 -1.71165,0.60383 -1.875284,0.71308 -1.190625,0.79493 4.058317,0.48515 36.341929,3.39261 36.644789,3.30022 0.21828,-0.0666 4.62359,-1.60161 9.78958,-3.41116 z m -54.596317,-1.9279 c 0.313116,-0.16001 5.849522,-2.14872 12.303125,-4.41935 6.453602,-2.27062 22.508982,-7.91928 35.678612,-12.55257 13.16964,-4.63329 24.153148,-8.50531 24.407808,-8.6045 0.43152,-0.16808 0.46302,-0.99736 0.46302,-12.19058 v -12.01024 l -8.13593,0.002 c -4.860788,8e-4 -8.538258,0.1132 -9.135358,0.27902 -1.16693,0.32406 -2.69216,1.58228 -3.26806,2.69596 -0.2222,0.42968 -0.49704,1.70422 -0.61077,2.8323 -0.37875,3.75707 -2.35882,6.68699 -5.5208,8.16914 l -1.5072,0.70637 H 67.812832 53.657626 l -1.507199,-0.7065 c -3.161979,-1.48215 -5.142055,-4.41206 -5.520806,-8.16914 -0.113723,-1.12808 -0.388564,-2.40261 -0.610761,-2.83229 -0.575908,-1.11368 -2.10113,-2.3719 -3.268065,-2.69596 -0.597098,-0.16582 -4.274573,-0.27814 -9.135355,-0.27902 l -8.135937,-0.001 v 25.00312 25.00313 l 0.595312,0.0178 c 0.327422,0.01 2.678906,0.22377 5.225521,0.47554 4.336018,0.42869 4.655425,0.42953 5.027083,0.0132 0.218281,-0.24452 0.65306,-0.5755 0.966176,-0.73552 z m 32.984397,-48.53177 c 2.57763,-1.96605 2.16845,-5.79816 -0.76789,-7.19154 -2.82224,-1.33925 -6.2145,1.12748 -5.86119,4.26205 0.36029,3.1965 4.10778,4.85258 6.62908,2.92949 z M 40.434538,182.01514 c 1.612865,-11.8682 10.348766,-21.23084 22.086634,-23.67118 3.27072,-0.68 8.86099,-0.55092 11.95266,0.27598 4.91785,1.31532 9.35802,3.87637 12.87401,7.4256 4.24851,4.28866 6.65945,9.10234 7.73337,15.44044 l 0.30261,1.78594 h 1.99375 1.99375 l -0.17609,-1.7188 c -0.46708,-4.55897 -3.07253,-11.17283 -5.83724,-14.81766 -4.99999,-6.59171 -11.88827,-10.95502 -19.70552,-12.48227 -3.01919,-0.58986 -8.66009,-0.58986 -11.67927,0 -7.771299,1.51827 -14.669459,5.86349 -19.599057,12.34563 -2.8972,3.80966 -5.463711,10.26927 -5.944441,14.96149 l -0.17536,1.71161 h 2.0047 2.0047 z"
         id="path105"
         inkscape:connector-curvature="0" />
      <path
         style="fill:#221e1f;stroke-width:0.26458332"
         d="m 20.432271,280.25877 c -3.961085,-1.06487 -6.90949,-4.24288 -7.666248,-8.26326 -0.347446,-1.84586 -0.391139,-1.89777 -1.597334,-1.89777 -1.3380807,0 -2.2473845,-0.42873 -2.6134915,-1.23225 -0.409446,-0.89864 -0.409446,-22.03686 0,-22.9355 0.410257,-0.90042 1.4051338,-1.28764 2.7789475,-1.08163 l 1.148349,0.17221 0.07228,-26.68589 0.07229,-26.68589 0.614529,-1.52191 c 1.156822,-2.86491 3.223434,-4.90511 6.164744,-6.08595 1.260997,-0.50625 2.047187,-0.58268 6.912914,-0.67199 l 5.490104,-0.10077 v -0.86826 c 0,-1.64414 0.819875,-5.57364 1.732518,-8.30364 4.071765,-12.17986 14.21939,-21.18932 26.912947,-23.89436 3.84649,-0.81969 10.30007,-0.81969 14.14657,0 12.69355,2.70504 22.84118,11.7145 26.91294,23.89436 0.91265,2.73 1.73252,6.6595 1.73252,8.30364 v 0.86826 l 5.4901,0.10077 c 4.86573,0.0893 5.65192,0.16574 6.91292,0.67199 2.94131,1.18084 5.00792,3.22104 6.16474,6.08595 0.60689,1.50299 0.61551,1.67075 0.69322,13.4943 0.0433,6.58482 0.17433,11.9724 0.29124,11.9724 0.11691,0 0.59119,-0.13199 1.05395,-0.29331 1.06865,-0.37253 2.21976,0.0565 2.64284,0.9851 0.42233,0.92691 0.41827,22.04009 -0.004,22.96778 -0.216,0.47408 -0.82659,0.87103 -2.12097,1.37886 l -1.81765,0.71313 0.0704,6.90182 0.0704,6.90182 1.32292,0.15584 c 1.71471,0.202 2.11317,0.39403 2.4777,1.19408 0.41563,0.9122 0.42176,22.03908 0.007,22.95012 -0.53979,1.18471 -1.17988,1.26772 -6.10852,0.79216 -3.92655,-0.37887 -4.64061,-0.38751 -5.34849,-0.0647 -1.26279,0.57582 -92.480796,0.65538 -94.611728,0.0825 z m 56.356249,-3.98518 c -0.3638,-0.0522 -13.57974,-1.28167 -29.36875,-2.73221 -15.78901,-1.45054 -29.156506,-2.70155 -29.705547,-2.78001 -0.978664,-0.13986 -0.994804,-0.1283 -0.822352,0.58904 0.495718,2.06201 2.222626,4.05357 4.105835,4.73508 0.679013,0.24572 7.470307,0.31737 28.671022,0.30248 15.279682,-0.0107 27.483592,-0.0622 27.119792,-0.11438 z m 45.77291,-8.5571 c 0,-7.88258 -0.0319,-8.46749 -0.46302,-8.47855 -0.25466,-0.007 -2.63591,-0.22159 -5.29166,-0.47789 l -4.82865,-0.466 v 3.90502 c 0,2.33876 -0.11989,4.16815 -0.29891,4.56105 -0.66952,1.46944 -2.96599,1.46944 -3.63552,0 -0.18065,-0.39648 -0.2989,-2.26172 -0.2989,-4.71458 v -4.05855 l -1.12448,-0.15688 c -0.61847,-0.0863 -2.04722,-0.23529 -3.175,-0.33112 l -2.05052,-0.17424 v 2.27301 c 0,1.25015 -0.13451,2.56821 -0.29891,2.92902 -0.66952,1.46945 -2.966,1.46945 -3.63552,0 -0.1644,-0.36081 -0.29891,-1.76752 -0.29891,-3.12603 v -2.47 l -2.05052,-0.17474 c -1.12778,-0.0961 -2.55653,-0.24267 -3.175,-0.32571 l -1.12448,-0.15098 v 3.85405 c 0,2.30088 -0.12046,4.11843 -0.2989,4.51008 -0.66953,1.46945 -2.966,1.46945 -3.63552,0 -0.18061,-0.39639 -0.29891,-2.26068 -0.29891,-4.71053 v -4.05451 l -2.71198,-0.18142 c -1.49159,-0.0998 -2.92034,-0.24221 -3.175,-0.3165 -0.41531,-0.12116 -0.46302,0.0972 -0.46302,2.11926 0,1.23989 -0.1345,2.54955 -0.2989,2.91037 -0.66953,1.46944 -2.966,1.46944 -3.63553,0 -0.1644,-0.36082 -0.2989,-1.70908 -0.2989,-2.99614 0,-2.73188 0.29257,-2.51422 -3.77031,-2.80497 l -2.57969,-0.18461 v 3.72318 c 0,2.20361 -0.122,3.99093 -0.29891,4.3792 -0.66952,1.46945 -2.96599,1.46945 -3.63552,0 -0.1792,-0.39331 -0.2989,-2.22668 -0.2989,-4.57815 v -3.92212 l -1.5875,-0.16647 c -0.87313,-0.0916 -2.301879,-0.24138 -3.175004,-0.33293 l -1.5875,-0.16647 v 2.13839 c 0,2.48401 -0.30461,3.329 -1.357239,3.76501 -0.975405,0.40403 -2.152927,-0.0394 -2.577189,-0.97059 -0.164399,-0.36081 -0.298905,-1.70783 -0.298905,-2.99336 v -2.33734 l -2.579688,-0.18461 c -1.418828,-0.10154 -2.847578,-0.24767 -3.175,-0.32473 l -0.595312,-0.14012 v 3.7204 c 0,2.20154 -0.122029,3.98822 -0.298905,4.37643 -0.669526,1.46944 -2.965998,1.46944 -3.635523,0 -0.177898,-0.39045 -0.298905,-2.19691 -0.298905,-4.46221 0,-4.42478 0.371922,-3.9895 -3.638021,-4.25775 l -2.711979,-0.18142 v 2.00601 c 0,2.35352 -0.316902,3.2017 -1.357238,3.63262 -0.975405,0.40403 -2.152928,-0.0394 -2.57719,-0.97059 -0.164399,-0.36081 -0.298905,-1.64893 -0.298905,-2.86249 v -2.20647 l -1.124479,-0.15097 c -0.618464,-0.083 -2.047214,-0.22961 -3.175,-0.32571 l -2.050521,-0.17474 v 3.59051 c 0,2.10501 -0.123666,3.86193 -0.298905,4.24654 -0.669525,1.46945 -2.965998,1.46945 -3.635523,0 -0.177613,-0.38982 -0.298905,-2.19069 -0.298905,-4.43798 v -3.78196 L 18.38175,249.6312 c -2.582994,-0.24328 -4.964244,-0.44079 -5.291666,-0.43893 l -0.595313,0.003 v 8.46666 c 0,7.88201 0.03197,8.46759 0.463021,8.48006 0.254662,0.007 24.454114,2.25471 53.776558,4.99411 29.32245,2.7394 53.87909,4.99556 54.57031,5.0137 l 1.25677,0.033 z m -4.23333,-18.94602 c 0,-5.58794 -0.0305,-5.96973 -0.46302,-5.80364 -0.25466,0.0978 -1.20716,0.43756 -2.11667,0.75504 l -1.65364,0.57724 v 4.94982 4.94983 l 0.85989,0.14167 c 0.47294,0.0779 1.27662,0.18332 1.78594,0.23423 0.50932,0.0509 1.07487,0.11161 1.25677,0.1349 0.25608,0.0328 0.33073,-1.30774 0.33073,-5.93909 z m -8.46667,1.09521 v -4.09248 l -3.77031,1.33044 c -2.07367,0.73175 -6.0325,2.11549 -8.79739,3.07499 -2.7649,0.95949 -5.11835,1.82338 -5.22989,1.91973 -0.14984,0.12944 13.39964,1.55834 17.33457,1.82806 0.42239,0.029 0.46302,-0.32744 0.46302,-4.06074 z m -7.47448,-5.86499 20.17448,-7.10225 v -8.38894 -8.38894 l -3.77031,1.33722 c -2.07367,0.73548 -4.45492,1.57331 -5.29167,1.86185 l -1.52135,0.52461 v 4.19659 c 0,2.55546 -0.11689,4.45314 -0.29891,4.85262 -0.66952,1.46945 -2.96599,1.46945 -3.63552,0 -0.1734,-0.38058 -0.2989,-2.10684 -0.2989,-4.11146 0,-2.65372 -0.0767,-3.42684 -0.33073,-3.33217 -0.1819,0.0678 -1.61065,0.57302 -3.175,1.12271 l -2.84427,0.99943 v 2.33273 c 0,1.28301 -0.13451,2.62795 -0.29891,2.98876 -0.42426,0.93115 -1.601777,1.37462 -2.57719,0.97059 -0.99619,-0.41264 -1.35724,-1.27185 -1.35724,-3.22997 0,-1.41914 -0.0532,-1.58269 -0.46302,-1.4235 -0.25466,0.0989 -1.68341,0.60237 -3.175,1.11879 l -2.71198,0.93894 v 3.65956 c 0,4.03326 -0.19845,4.8062 -1.35723,5.28618 -0.97541,0.40403 -2.15293,-0.0394 -2.57719,-0.97059 -0.16447,-0.36096 -0.29891,-1.96936 -0.29891,-3.57604 0,-1.60601 -0.0942,-2.88033 -0.20929,-2.83182 -0.11512,0.0485 -1.54387,0.55313 -3.175,1.1214 l -2.96571,1.0332 v 1.79862 c 0,2.14956 -0.33823,3.00314 -1.35724,3.42523 -1.58156,0.65511 -2.87609,-0.54344 -2.87609,-2.66286 v -1.03625 l -3.175,1.10389 -3.175,1.1039 v 3.10735 c 0,1.74592 -0.13096,3.39478 -0.29891,3.76338 -0.42725,0.93773 -1.60183,1.3746 -2.5925,0.96425 -1.03961,-0.43062 -1.16343,-0.77867 -1.33068,-3.74037 l -0.14354,-2.54187 -10.581054,3.72931 c -5.819581,2.05112 -10.34593,3.77459 -10.05855,3.82993 1.45524,0.28026 35.852364,3.42914 36.646894,3.35484 0.50933,-0.0476 10.00456,-3.28261 21.10052,-7.18885 z m -66.000842,2.43593 c 0.451599,-0.4979 8.781899,-3.5235 37.042912,-13.45413 20.05316,-7.04647 36.45402,-12.88912 36.44635,-12.98367 -0.008,-0.0945 -0.0139,-5.52972 -0.0139,-12.07816 v -11.90625 h -8.55734 c -8.44745,0 -8.57232,0.008 -9.72344,0.61563 -1.82635,0.9642 -2.6256,2.32754 -2.91459,4.97164 -0.43375,3.96852 -2.3839,6.81722 -5.74578,8.39321 l -1.50155,0.7039 H 67.52254 53.626352 l -1.746663,-0.85988 c -3.252464,-1.60118 -5.042339,-4.29123 -5.484426,-8.24269 -0.295179,-2.63837 -1.098454,-4.00467 -2.919711,-4.96618 -1.15112,-0.60772 -1.275993,-0.61563 -9.723437,-0.61563 h -8.557344 v 25.00313 c 0,13.75171 0.02976,25.01548 0.06615,25.03059 0.0973,0.0404 9.221546,0.95521 9.934566,0.99604 0.341286,0.0195 0.863584,-0.24697 1.190625,-0.60755 z m -15.42467,-27.01861 v -26.33807 l 0.66083,-0.66082 0.66083,-0.66084 10.517816,0.0775 10.517814,0.0775 1.616707,0.74716 c 3.247919,1.50103 5.206058,4.4067 5.661652,8.40129 0.28751,2.52085 0.964589,3.78417 2.559558,4.77574 l 1.009999,0.6279 H 67.5281 80.88956 l 1.01,-0.6279 c 1.61525,-1.00418 2.32883,-2.33227 2.57728,-4.79677 0.39448,-3.91317 2.39028,-6.87659 5.64393,-8.38026 l 1.61671,-0.74716 10.51781,-0.0775 10.51782,-0.0775 0.66083,0.66084 0.66083,0.66082 v 12.71203 c 0,6.99162 0.0959,12.71203 0.21304,12.71203 0.11718,0 1.03991,-0.27891 2.05052,-0.61979 l 1.83748,-0.61978 0.0752,-12.01407 c 0.0556,-8.88313 -0.01,-12.32436 -0.24994,-13.2047 -0.4226,-1.54754 -2.55169,-3.72185 -4.08929,-4.17615 -0.79284,-0.23425 -4.77189,-0.32176 -14.63026,-0.32176 H 85.7603 l -0.64943,-0.64943 c -0.8592,-0.8592 -0.8592,-2.07528 0,-2.93447 0.59734,-0.59735 0.84878,-0.64943 3.13494,-0.64943 h 2.48552 l -0.23106,-1.52136 c -0.49483,-3.25816 -2.01614,-7.00152 -3.93179,-9.67464 l -1.10269,-1.53871 -1.79937,1.73714 c -2.06021,1.98897 -2.9699,2.22962 -4.1118,1.08772 -1.14116,-1.14116 -0.901,-2.05186 1.08303,-4.10696 l 1.73246,-1.79452 -1.34482,-0.98719 c -2.59558,-1.90533 -6.63418,-3.56719 -9.85917,-4.05699 l -1.52135,-0.23105 v 2.48551 c 0,2.28616 -0.0521,2.5376 -0.64943,3.13495 -0.8592,0.85919 -2.07528,0.85919 -2.93447,0 -0.59735,-0.59735 -0.64943,-0.84879 -0.64943,-3.13495 v -2.48551 l -1.52136,0.23105 c -3.230916,0.4907 -7.36031,2.18519 -9.94594,4.0813 l -1.280834,0.93928 1.743855,1.80632 c 1.996062,2.06756 2.237393,2.97579 1.094425,4.11876 -1.141153,1.14115 -2.051859,0.90099 -4.106955,-1.08304 l -1.794523,-1.73246 -0.941993,1.28326 c -1.945942,2.6509 -3.608856,6.6725 -4.102179,9.92073 l -0.231058,1.52136 h 2.485514 c 2.286164,0 2.537603,0.0521 3.134945,0.64943 0.409373,0.40937 0.649432,0.95173 0.649432,1.46723 0,0.51551 -0.240059,1.05786 -0.649432,1.46724 l -0.649431,0.64943 H 35.75468 c -9.85837,0 -13.837411,0.0875 -14.630254,0.32176 -1.453313,0.4294 -3.645163,2.62125 -4.074557,4.07456 -0.24309,0.82275 -0.321765,7.46702 -0.321765,27.17395 v 26.08491 l 0.859896,0.14255 c 0.472943,0.0784 1.336146,0.18285 1.918229,0.2321 0.582084,0.0493 1.147631,0.10955 1.256771,0.13402 0.109141,0.0245 0.198438,-11.80765 0.198438,-26.29359 z M 64.9616,201.88795 c -2.87418,-1.027 -4.705695,-2.95846 -5.545855,-5.84851 -0.825125,-2.83833 0.08146,-6.00196 2.319985,-8.09583 0.71195,-0.66595 1.29446,-1.33802 1.29446,-1.49349 0,-0.15547 -0.48964,-1.87966 -1.08808,-3.83154 -0.945266,-3.08306 -1.047104,-3.64779 -0.775872,-4.30261 0.317654,-0.76688 1.231142,-1.35155 2.111672,-1.35155 1.0921,0 1.61594,0.87887 2.74647,4.60796 l 1.11623,3.68192 1.61225,0.32887 c 2.02669,0.41341 3.5166,1.16733 4.75579,2.40651 3.18043,3.18044 3.1637,8.65243 -0.0362,11.85237 -2.15198,2.15199 -5.77589,3.02313 -8.51081,2.0459 z m 4.70389,-4.35848 c 1.37128,-0.9241 2.09595,-2.17976 2.09595,-3.63172 0,-0.85649 -0.18763,-1.52308 -0.60161,-2.13739 -1.89714,-2.81516 -5.36631,-2.81516 -7.26345,0 -1.74964,2.59629 0.40202,6.37072 3.63172,6.37072 0.85649,0 1.52308,-0.18762 2.13739,-0.60161 z M 40.362907,181.79306 c 0.249404,-2.33831 1.170775,-5.531 2.280644,-7.90279 3.495432,-7.46973 10.097688,-12.94602 18.215514,-15.109 2.237005,-0.59605 3.096575,-0.68424 6.669035,-0.68424 3.60038,0 4.42378,0.0859 6.74463,0.70341 8.02651,2.13572 14.66045,7.65422 18.13992,15.08983 1.10987,2.37179 2.03124,5.56448 2.28065,7.90279 l 0.16227,1.52136 h 2.21439 2.2144 l -0.15584,-1.12448 c -0.8842,-6.38012 -2.78589,-11.14213 -6.3321,-15.85613 -5.96975,-7.93564 -15.39007,-12.65273 -25.26832,-12.65273 -9.878243,0 -19.298568,4.71709 -25.268319,12.65273 -3.546205,4.714 -5.4479,9.47601 -6.332093,15.85613 l -0.155839,1.12448 h 2.214396 2.214393 z"
         id="path103"
         inkscape:connector-curvature="0" />
    </g>
  </g>
</svg>
